<?xml version="1.0" standalone="no"?>
<!DOCTYPE svg PUBLIC "-//W3C//DTD SVG 20010904//EN"
 "http://www.w3.org/TR/2001/REC-SVG-20010904/DTD/svg10.dtd">
<svg version="1.0" xmlns="http://www.w3.org/2000/svg"
 width="681.000000pt" height="508.000000pt" viewBox="0 0 681.000000 508.000000"
 preserveAspectRatio="xMidYMid meet">
<metadata>
Created by potrace 1.16, written by Peter Selinger 2001-2019
</metadata>
<g transform="translate(0.000000,508.000000) scale(0.100000,-0.100000)"
fill="#000000" stroke="none">
<path d="M1967 4418 c-13 -74 -20 -98 -26 -94 -4 3 -17 -30 -30 -72 -13 -42
-28 -83 -34 -90 -14 -18 -85 -49 -138 -61 -63 -14 -157 -3 -164 19 -5 15 -13
17 -45 13 -35 -5 -41 -3 -51 21 -13 27 -24 33 -33 17 -11 -18 7 -42 36 -48 30
-6 67 -45 48 -51 -5 -2 -10 -10 -10 -18 0 -19 -17 -18 -28 1 -7 13 -14 11 -46
-15 -22 -16 -42 -30 -47 -30 -4 0 -32 -14 -60 -31 -36 -21 -54 -27 -59 -19 -5
8 -15 1 -29 -19 -24 -34 -29 -35 -51 -21 -12 7 -12 12 -2 22 14 14 17 42 3 34
-5 -3 -11 3 -14 14 -3 11 -13 20 -22 20 -9 0 -13 -5 -10 -11 4 -5 -1 -19 -10
-29 -16 -18 -16 -21 -1 -44 9 -14 16 -32 16 -41 0 -19 58 -75 77 -75 7 0 13
-4 13 -10 0 -12 74 -32 93 -24 8 3 33 27 55 53 27 32 51 50 73 55 17 3 70 28
118 56 48 27 92 50 98 50 6 0 39 13 74 30 35 16 65 28 66 26 8 -8 -20 -223
-34 -260 -26 -71 -134 -236 -179 -274 -24 -20 -42 -38 -39 -40 8 -8 100 57
141 100 52 56 120 148 128 173 3 11 10 63 16 115 16 134 33 183 80 220 50 40
100 163 100 249 0 57 -6 71 -46 104 -21 18 -22 17 -27 -15z"/>
<path d="M940 3673 c-8 -3 -39 -14 -67 -25 -29 -11 -53 -23 -53 -28 0 -5 15
-12 33 -15 54 -12 85 -33 180 -122 81 -75 259 -224 295 -247 14 -9 92 48 92
68 0 19 -45 56 -170 142 -104 72 -197 152 -242 212 -17 21 -38 26 -68 15z"/>
<path d="M545 3534 c-86 -34 -201 -95 -236 -124 -27 -22 -35 -44 -38 -96 -1
-7 -17 -34 -36 -62 -29 -42 -32 -51 -18 -56 9 -4 13 -9 10 -12 -3 -3 -14 0
-24 6 -16 10 -27 7 -67 -19 -27 -17 -64 -36 -83 -42 -19 -6 -32 -16 -30 -22
11 -34 114 -77 219 -92 45 -7 48 -6 60 21 6 16 18 37 27 47 12 14 12 24 3 56
-19 60 -16 68 33 87 48 18 99 68 92 89 -3 7 31 24 90 44 l94 34 -7 29 c-3 17
-6 54 -5 84 0 62 1 62 -84 28z"/>
<path d="M732 3519 c-10 -15 -16 -18 -26 -10 -19 16 -46 3 -46 -23 1 -11 7
-49 14 -82 13 -61 8 -235 -10 -371 -8 -59 4 -84 39 -80 19 2 22 -4 25 -40 3
-34 -1 -44 -17 -53 -25 -13 -28 -50 -5 -50 14 0 15 -7 10 -40 -5 -35 -4 -40
13 -40 11 0 26 -3 35 -6 22 -8 66 43 66 77 0 28 -28 89 -56 120 -27 30 -25 73
5 211 17 76 31 157 31 180 l1 43 53 -57 c30 -31 94 -110 144 -176 87 -117 90
-119 103 -96 11 21 10 27 -9 47 -26 27 -28 37 -8 37 8 0 23 -11 34 -25 11 -14
27 -25 36 -25 9 0 16 -4 16 -9 0 -11 55 -31 86 -31 27 0 27 0 14 34 -7 19 -6
26 3 26 7 0 12 14 12 36 0 47 -48 90 -102 92 -21 1 -45 10 -57 21 -12 11 -35
26 -51 33 -63 27 -195 111 -195 124 0 8 -9 14 -20 14 -30 0 -34 23 -10 63 12
20 19 40 16 45 -6 10 -84 32 -113 32 -10 0 -24 -9 -31 -21z"/>
<path d="M1450 2898 c-14 -5 -32 -7 -42 -5 -9 3 -19 0 -21 -6 -2 -6 -20 -6
-54 3 -89 23 -114 -6 -64 -75 34 -48 39 -72 16 -89 -14 -10 -12 -18 15 -68 24
-44 39 -59 70 -72 22 -9 52 -16 66 -16 16 0 46 -18 82 -49 31 -27 80 -69 109
-93 155 -129 212 -181 246 -222 63 -76 160 -118 447 -191 135 -35 270 -71 300
-80 30 -9 74 -14 96 -12 l41 4 23 -71 c13 -39 30 -82 38 -96 34 -57 104 -158
142 -205 22 -27 47 -66 57 -85 91 -187 123 -260 123 -284 0 -61 -34 -176 -80
-271 -38 -77 -64 -116 -117 -170 -38 -38 -86 -97 -107 -130 -21 -33 -48 -70
-60 -83 l-21 -24 30 4 c21 2 30 -2 33 -14 2 -12 -1 -16 -11 -12 -9 3 -23 -8
-37 -30 -12 -20 -25 -36 -30 -36 -4 0 -27 9 -51 20 -48 21 -69 25 -69 11 0 -5
-16 -32 -35 -61 -19 -29 -35 -56 -35 -62 0 -5 30 -23 66 -40 59 -27 72 -30
127 -24 71 7 104 26 113 64 4 15 11 32 16 39 5 7 9 27 8 45 -3 53 -1 58 25 58
49 0 76 24 153 139 43 64 90 136 105 161 14 25 72 92 127 150 89 93 103 112
117 162 l16 58 48 -75 c28 -43 59 -79 73 -84 19 -8 25 -18 28 -51 4 -44 -14
-100 -32 -100 -5 0 -10 7 -10 15 0 8 -4 15 -10 15 -5 0 -10 -11 -10 -24 0 -72
-50 -220 -99 -296 -35 -53 -53 -140 -30 -140 7 0 27 17 46 37 l33 38 -15 -35
c-8 -19 -21 -47 -27 -62 -8 -19 -20 -28 -35 -28 -13 0 -23 5 -23 10 0 22 -29
8 -49 -22 -19 -31 -19 -33 -2 -40 14 -5 17 -14 13 -40 -2 -18 -9 -39 -14 -45
-17 -22 -1 -46 26 -39 17 4 26 1 30 -11 4 -9 5 -18 2 -20 -5 -5 -177 13 -216
22 -23 6 -29 1 -53 -43 -35 -65 -35 -88 3 -107 42 -22 174 -20 220 3 30 15 35
23 38 57 2 22 10 46 19 52 15 12 15 16 0 49 -19 38 -11 64 20 64 33 0 75 33
92 73 10 23 34 76 54 117 19 41 48 105 65 141 28 62 61 114 146 229 40 55 56
151 34 210 -20 53 -140 280 -148 280 -13 0 -21 -65 -15 -112 5 -34 4 -39 -5
-25 -7 11 -18 16 -29 12 -14 -4 -17 1 -17 29 0 44 -19 68 -49 60 -37 -9 -64 5
-96 49 l-30 41 25 15 c24 14 87 142 100 203 4 15 27 51 52 79 58 66 83 114 65
132 -10 9 -16 8 -29 -9 -58 -74 -92 -108 -129 -129 -37 -22 -46 -24 -90 -15
-26 6 -73 14 -103 19 -63 11 -121 33 -138 54 -22 26 -53 142 -59 217 -4 49
-11 78 -20 83 -11 7 -11 12 -3 22 13 16 22 107 12 121 -12 17 -51 34 -77 34
-26 0 -33 -21 -16 -49 10 -15 -24 -81 -41 -81 -5 0 -22 8 -36 18 -15 10 -46
26 -69 36 -23 11 -40 22 -38 26 19 31 -136 16 -175 -17 -34 -28 -55 -29 -112
-4 -24 10 -113 37 -198 60 -235 63 -263 77 -369 183 -96 97 -108 113 -85 122
8 3 14 12 14 21 0 13 -7 15 -35 9 -37 -7 -65 7 -65 32 0 7 23 37 52 66 29 29
51 58 50 65 -2 7 6 17 17 22 32 18 36 49 9 71 -25 21 -38 25 -38 11 0 -5 -14
-23 -31 -40 -20 -20 -28 -37 -25 -49 4 -13 -11 -34 -54 -76 l-60 -58 -67 12
c-128 23 -124 20 -63 42 30 11 65 21 78 22 34 2 27 18 -33 70 -54 47 -75 51
-75 17 0 -30 -56 -75 -94 -75 -43 0 -61 15 -92 76 -27 54 -25 68 12 68 21 0
24 5 24 33 0 19 3 36 6 40 10 10 53 -23 69 -52 l14 -26 1 36 c0 19 -5 40 -12
47 -9 9 -7 16 6 31 21 23 10 32 -24 19z"/>
<path d="M855 2780 c-3 -5 3 -10 14 -10 25 0 29 -41 7 -59 -20 -17 -30 -69
-17 -85 6 -7 8 -27 5 -45 -4 -20 -3 -31 5 -31 6 0 11 5 11 10 0 11 33 14 43 3
4 -3 19 -7 32 -8 20 0 27 5 32 25 14 55 1 160 -21 160 -7 0 -22 11 -34 25 -22
25 -65 34 -77 15z"/>
</g>
</svg>
